<svg width="18" height="17" viewBox="0 0 18 17" fill="none" xmlns="http://www.w3.org/2000/svg">
<path d="M4.60769 16.6077C2.93297 15.6408 1.6241 14.1483 0.884071 12.3617C0.14404 10.5751 0.0142074 8.59427 0.51471 6.72637C1.01521 4.85847 2.11808 3.20792 3.65226 2.0307C5.18644 0.853477 7.0662 0.215386 8.99999 0.215386C10.9338 0.215386 12.8135 0.853478 14.3477 2.0307C15.8819 3.20792 16.9848 4.85847 17.4853 6.72637C17.9858 8.59427 17.856 10.5751 17.1159 12.3617C16.3759 14.1483 15.067 15.6408 13.3923 16.6077L10.0524 10.8229C10.4537 10.5912 10.7673 10.2336 10.9446 9.80549C11.1219 9.37741 11.1531 8.90278 11.0331 8.45522C10.9132 8.00766 10.6489 7.61217 10.2813 7.3301C9.91375 7.04803 9.46335 6.89514 8.99999 6.89514C8.53664 6.89514 8.08624 7.04803 7.71864 7.3301C7.35104 7.61217 7.08679 8.00766 6.96686 8.45522C6.84694 8.90278 6.87805 9.37741 7.05536 9.80549C7.23268 10.2336 7.54629 10.5912 7.94757 10.8229L4.60769 16.6077Z" fill="#5D45E7"/>
<path d="M11.5 9C11.5 10.3807 10.3807 11.5 9 11.5C7.61929 11.5 6.5 10.3807 6.5 9C6.5 7.61929 7.61929 6.5 9 6.5C10.3807 6.5 11.5 7.61929 11.5 9Z" fill="#DEDEDE" fill-opacity="0.2" stroke="#B2F5FD"/>
<path d="M13.7 9C13.7 9.55208 13.446 10.3122 13.0203 11.1715C12.5996 12.0205 12.0305 12.9288 11.4422 13.7649C10.8542 14.6004 10.2518 15.357 9.7678 15.9025C9.52525 16.1758 9.31642 16.3916 9.15668 16.5368C9.09143 16.596 9.03828 16.6399 8.99723 16.6702C8.95631 16.6414 8.9034 16.5996 8.83852 16.5432C8.67918 16.4046 8.47069 16.198 8.22849 15.9351C7.74521 15.4105 7.14347 14.6789 6.55626 13.8606C5.96871 13.0419 5.40052 12.1429 4.98049 11.2833C4.55675 10.416 4.3 9.62086 4.3 9C4.3 6.40426 6.40429 4.3 9.00003 4.3C11.5958 4.3 13.7 6.40426 13.7 9ZM8.93473 16.7108C8.933 16.7116 8.93336 16.7113 8.9356 16.7104L8.93473 16.7108Z" fill="#DEDEDE" fill-opacity="0.2" stroke="#75BCDB" stroke-width="0.6"/>
</svg>
